<?xml version="1.0" encoding="utf-8"?>
<svg version="1.1" xmlns:xlink="http://www.w3.org/1999/xlink" width="12px" height="12px" xmlns="http://www.w3.org/2000/svg">
  <g transform="matrix(1 0 0 1 -827 491 )">
    <path d="M 12 0  L 10.2375 1.7625  C 9.15 0.675  7.6575 0  6 0  C 2.685 0  0.00749999999999984 2.685  0.00749999999999984 6  C 0.00749999999999984 9.315  2.685 12  6 12  C 8.7975 12  11.13 10.0875  11.7975 7.5  L 10.2375 7.5  C 9.6225 9.2475  7.9575 10.5  6 10.5  C 3.5175 10.5  1.5 8.4825  1.5 6  C 1.5 3.5175  3.5175 1.5  6 1.5  C 7.245 1.5  8.355 2.0175  9.165 2.835  L 6.75 5.25  L 12 5.25  L 12 0  Z " fill-rule="nonzero" fill="#ffffff" stroke="none" transform="matrix(1 0 0 1 827 -491 )" />
  </g>
</svg>