<?xml version="1.0" encoding="utf-8"?>
<svg version="1.1" xmlns:xlink="http://www.w3.org/1999/xlink" width="16px" height="12px" xmlns="http://www.w3.org/2000/svg">
  <g transform="matrix(1 0 0 1 -735 491 )">
    <path d="M 9.26315789473684 5.14285714285714  L 9.26315789473684 3.42857142857143  L 0 3.42857142857143  L 0 5.14285714285714  L 9.26315789473684 5.14285714285714  Z M 9.26315789473684 1.71428571428571  L 9.26315789473684 0  L 0 0  L 0 1.71428571428571  L 9.26315789473684 1.71428571428571  Z M 16 6.85714285714286  L 12.6315789473684 6.85714285714286  L 12.6315789473684 3.42857142857143  L 10.9473684210526 3.42857142857143  L 10.9473684210526 6.85714285714286  L 7.57894736842105 6.85714285714286  L 7.57894736842105 8.57142857142857  L 10.9473684210526 8.57142857142857  L 10.9473684210526 12  L 12.6315789473684 12  L 12.6315789473684 8.57142857142857  L 16 8.57142857142857  L 16 6.85714285714286  Z M 0 6.85714285714286  L 0 8.57142857142857  L 5.89473684210526 8.57142857142857  L 5.89473684210526 6.85714285714286  L 0 6.85714285714286  Z " fill-rule="nonzero" fill="#ffffff" stroke="none" transform="matrix(1 0 0 1 735 -491 )" />
  </g>
</svg>