<?xml version="1.0" encoding="utf-8"?>
<svg version="1.1" xmlns:xlink="http://www.w3.org/1999/xlink" width="12px" height="12px" viewBox="747 -442  12 12" xmlns="http://www.w3.org/2000/svg">
  <path d="M 747.5 -440  A 1.5 1.5 0 0 1 749 -441.5 L 757 -441.5  A 1.5 1.5 0 0 1 758.5 -440 L 758.5 -432  A 1.5 1.5 0 0 1 757 -430.5 L 749 -430.5  A 1.5 1.5 0 0 1 747.5 -432 L 747.5 -440  Z " fill-rule="nonzero" fill="#ffffff" stroke="none" />
  <path d="M 747.5 -440  A 1.5 1.5 0 0 1 749 -441.5 L 757 -441.5  A 1.5 1.5 0 0 1 758.5 -440 L 758.5 -432  A 1.5 1.5 0 0 1 757 -430.5 L 749 -430.5  A 1.5 1.5 0 0 1 747.5 -432 L 747.5 -440  Z " stroke-width="1" stroke="#aaaaaa" fill="none" />
</svg>