<?xml version="1.0" encoding="utf-8"?>
<svg version="1.1" xmlns:xlink="http://www.w3.org/1999/xlink" width="12px" height="12px" viewBox="122 757.5  12 12" xmlns="http://www.w3.org/2000/svg">
  <path d="M 128 757.5  C 131.36 757.5  134 760.14  134 763.5  C 134 766.86  131.36 769.5  128 769.5  C 124.64 769.5  122 766.86  122 763.5  C 122 760.14  124.64 757.5  128 757.5  Z " fill-rule="nonzero" fill="#ffffff" stroke="none" />
  <path d="M 128 758  C 131.08 758  133.5 760.42  133.5 763.5  C 133.5 766.58  131.08 769  128 769  C 124.92 769  122.5 766.58  122.5 763.5  C 122.5 760.42  124.92 758  128 758  Z " stroke-width="1" stroke="#aaaaaa" fill="none" />
  <path d="M 128 766.5  C 126.32 766.5  125 765.18  125 763.5  C 125 761.82  126.32 760.5  128 760.5  C 129.68 760.5  131 761.82  131 763.5  C 131 765.18  129.68 766.5  128 766.5  " fill-rule="nonzero" fill="#aaaaaa" stroke="none" />
</svg>