<?xml version="1.0" encoding="utf-8"?>
<svg version="1.1" xmlns:xlink="http://www.w3.org/1999/xlink" width="12px" height="12px" viewBox="24 757.5  12 12" xmlns="http://www.w3.org/2000/svg">
  <path d="M 30 757.5  C 33.36 757.5  36 760.14  36 763.5  C 36 766.86  33.36 769.5  30 769.5  C 26.64 769.5  24 766.86  24 763.5  C 24 760.14  26.64 757.5  30 757.5  Z " fill-rule="nonzero" fill="#ffffff" stroke="none" />
  <path d="M 30 758  C 33.08 758  35.5 760.42  35.5 763.5  C 35.5 766.58  33.08 769  30 769  C 26.92 769  24.5 766.58  24.5 763.5  C 24.5 760.42  26.92 758  30 758  Z " stroke-width="1" stroke="#aaaaaa" fill="none" />
  <path d="M 30 766.5  C 28.32 766.5  27 765.18  27 763.5  C 27 761.82  28.32 760.5  30 760.5  C 31.68 760.5  33 761.82  33 763.5  C 33 765.18  31.68 766.5  30 766.5  " fill-rule="nonzero" fill="#aaaaaa" stroke="none" />
</svg>