<?xml version="1.0" encoding="utf-8"?>
<svg version="1.1" xmlns:xlink="http://www.w3.org/1999/xlink" width="15px" height="15px" viewBox="30 489  15 15" xmlns="http://www.w3.org/2000/svg">
  <path d="M 37.5 489  C 41.7 489  45 492.3  45 496.5  C 45 500.7  41.7 504  37.5 504  C 33.3 504  30 500.7  30 496.5  C 30 492.3  33.3 489  37.5 489  Z " fill-rule="nonzero" fill="#ffffff" stroke="none" />
  <path d="M 37.5 489.5  C 41.42 489.5  44.5 492.58  44.5 496.5  C 44.5 500.42  41.42 503.5  37.5 503.5  C 33.58 503.5  30.5 500.42  30.5 496.5  C 30.5 492.58  33.58 489.5  37.5 489.5  Z " stroke-width="1" stroke="#797979" fill="none" />
  <path d="M 37.5 500.25  C 35.4 500.25  33.75 498.6  33.75 496.5  C 33.75 494.4  35.4 492.75  37.5 492.75  C 39.6 492.75  41.25 494.4  41.25 496.5  C 41.25 498.6  39.6 500.25  37.5 500.25  " fill-rule="nonzero" fill="#797979" stroke="none" />
</svg>