<?xml version="1.0" encoding="utf-8"?>
<svg version="1.1" xmlns:xlink="http://www.w3.org/1999/xlink" width="15px" height="15px" viewBox="131 488  15 15" xmlns="http://www.w3.org/2000/svg">
  <path d="M 138.5 488  C 142.7 488  146 491.3  146 495.5  C 146 499.7  142.7 503  138.5 503  C 134.3 503  131 499.7  131 495.5  C 131 491.3  134.3 488  138.5 488  Z " fill-rule="nonzero" fill="#ffffff" stroke="none" />
  <path d="M 138.5 488.5  C 142.42 488.5  145.5 491.58  145.5 495.5  C 145.5 499.42  142.42 502.5  138.5 502.5  C 134.58 502.5  131.5 499.42  131.5 495.5  C 131.5 491.58  134.58 488.5  138.5 488.5  Z " stroke-width="1" stroke="#797979" fill="none" />
  <path d="M 138.5 499.25  C 136.4 499.25  134.75 497.6  134.75 495.5  C 134.75 493.4  136.4 491.75  138.5 491.75  C 140.6 491.75  142.25 493.4  142.25 495.5  C 142.25 497.6  140.6 499.25  138.5 499.25  " fill-rule="nonzero" fill="#797979" stroke="none" />
</svg>