<?xml version="1.0" encoding="utf-8"?>
<svg version="1.1" xmlns:xlink="http://www.w3.org/1999/xlink" width="15px" height="15px" viewBox="30 490  15 15" xmlns="http://www.w3.org/2000/svg">
  <path d="M 37.5 490  C 41.7 490  45 493.3  45 497.5  C 45 501.7  41.7 505  37.5 505  C 33.3 505  30 501.7  30 497.5  C 30 493.3  33.3 490  37.5 490  Z " fill-rule="nonzero" fill="#ffffff" stroke="none" />
  <path d="M 37.5 490.5  C 41.42 490.5  44.5 493.58  44.5 497.5  C 44.5 501.42  41.42 504.5  37.5 504.5  C 33.58 504.5  30.5 501.42  30.5 497.5  C 30.5 493.58  33.58 490.5  37.5 490.5  Z " stroke-width="1" stroke="#797979" fill="none" />
  <path d="M 37.5 501.25  C 35.4 501.25  33.75 499.6  33.75 497.5  C 33.75 495.4  35.4 493.75  37.5 493.75  C 39.6 493.75  41.25 495.4  41.25 497.5  C 41.25 499.6  39.6 501.25  37.5 501.25  " fill-rule="nonzero" fill="#797979" stroke="none" />
</svg>