<?xml version="1.0" encoding="utf-8"?>
<svg version="1.1" xmlns:xlink="http://www.w3.org/1999/xlink" width="15px" height="15px" viewBox="215 505  15 15" xmlns="http://www.w3.org/2000/svg">
  <path d="M 222.5 505  C 226.7 505  230 508.3  230 512.5  C 230 516.7  226.7 520  222.5 520  C 218.3 520  215 516.7  215 512.5  C 215 508.3  218.3 505  222.5 505  Z " fill-rule="nonzero" fill="#ffffff" stroke="none" />
  <path d="M 222.5 505.5  C 226.42 505.5  229.5 508.58  229.5 512.5  C 229.5 516.42  226.42 519.5  222.5 519.5  C 218.58 519.5  215.5 516.42  215.5 512.5  C 215.5 508.58  218.58 505.5  222.5 505.5  Z " stroke-width="1" stroke="#797979" fill="none" />
  <path d="M 222.5 516.25  C 220.4 516.25  218.75 514.6  218.75 512.5  C 218.75 510.4  220.4 508.75  222.5 508.75  C 224.6 508.75  226.25 510.4  226.25 512.5  C 226.25 514.6  224.6 516.25  222.5 516.25  " fill-rule="nonzero" fill="#797979" stroke="none" />
</svg>