<?xml version="1.0" encoding="utf-8"?>
<svg version="1.1" xmlns:xlink="http://www.w3.org/1999/xlink" width="15px" height="15px" viewBox="316 504  15 15" xmlns="http://www.w3.org/2000/svg">
  <path d="M 323.5 504  C 327.7 504  331 507.3  331 511.5  C 331 515.7  327.7 519  323.5 519  C 319.3 519  316 515.7  316 511.5  C 316 507.3  319.3 504  323.5 504  Z " fill-rule="nonzero" fill="#ffffff" stroke="none" />
  <path d="M 323.5 504.5  C 327.42 504.5  330.5 507.58  330.5 511.5  C 330.5 515.42  327.42 518.5  323.5 518.5  C 319.58 518.5  316.5 515.42  316.5 511.5  C 316.5 507.58  319.58 504.5  323.5 504.5  Z " stroke-width="1" stroke="#797979" fill="none" />
  <path d="M 323.5 515.25  C 321.4 515.25  319.75 513.6  319.75 511.5  C 319.75 509.4  321.4 507.75  323.5 507.75  C 325.6 507.75  327.25 509.4  327.25 511.5  C 327.25 513.6  325.6 515.25  323.5 515.25  " fill-rule="nonzero" fill="#797979" stroke="none" />
</svg>