<?xml version="1.0" encoding="utf-8"?>
<svg version="1.1" xmlns:xlink="http://www.w3.org/1999/xlink" width="15px" height="15px" viewBox="600 333  15 15" xmlns="http://www.w3.org/2000/svg">
  <path d="M 607.5 333  C 611.7 333  615 336.3  615 340.5  C 615 344.7  611.7 348  607.5 348  C 603.3 348  600 344.7  600 340.5  C 600 336.3  603.3 333  607.5 333  Z " fill-rule="nonzero" fill="#ffffff" stroke="none" />
  <path d="M 607.5 333.5  C 611.42 333.5  614.5 336.58  614.5 340.5  C 614.5 344.42  611.42 347.5  607.5 347.5  C 603.58 347.5  600.5 344.42  600.5 340.5  C 600.5 336.58  603.58 333.5  607.5 333.5  Z " stroke-width="1" stroke="#797979" fill="none" />
  <path d="M 607.5 344.25  C 605.4 344.25  603.75 342.6  603.75 340.5  C 603.75 338.4  605.4 336.75  607.5 336.75  C 609.6 336.75  611.25 338.4  611.25 340.5  C 611.25 342.6  609.6 344.25  607.5 344.25  " fill-rule="nonzero" fill="#797979" stroke="none" />
</svg>