<?xml version="1.0" encoding="utf-8"?>
<svg version="1.1" xmlns:xlink="http://www.w3.org/1999/xlink" width="15px" height="15px" viewBox="502 333  15 15" xmlns="http://www.w3.org/2000/svg">
  <path d="M 509.5 333  C 513.7 333  517 336.3  517 340.5  C 517 344.7  513.7 348  509.5 348  C 505.3 348  502 344.7  502 340.5  C 502 336.3  505.3 333  509.5 333  Z " fill-rule="nonzero" fill="#ffffff" stroke="none" />
  <path d="M 509.5 333.5  C 513.42 333.5  516.5 336.58  516.5 340.5  C 516.5 344.42  513.42 347.5  509.5 347.5  C 505.58 347.5  502.5 344.42  502.5 340.5  C 502.5 336.58  505.58 333.5  509.5 333.5  Z " stroke-width="1" stroke="#797979" fill="none" />
  <path d="M 509.5 344.25  C 507.4 344.25  505.75 342.6  505.75 340.5  C 505.75 338.4  507.4 336.75  509.5 336.75  C 511.6 336.75  513.25 338.4  513.25 340.5  C 513.25 342.6  511.6 344.25  509.5 344.25  " fill-rule="nonzero" fill="#797979" stroke="none" />
</svg>