<?xml version="1.0" encoding="utf-8"?>
<svg version="1.1" xmlns:xlink="http://www.w3.org/1999/xlink" width="15px" height="15px" viewBox="131 367  15 15" xmlns="http://www.w3.org/2000/svg">
  <path d="M 138.5 367  C 142.7 367  146 370.3  146 374.5  C 146 378.7  142.7 382  138.5 382  C 134.3 382  131 378.7  131 374.5  C 131 370.3  134.3 367  138.5 367  Z " fill-rule="nonzero" fill="#ffffff" stroke="none" />
  <path d="M 138.5 367.5  C 142.42 367.5  145.5 370.58  145.5 374.5  C 145.5 378.42  142.42 381.5  138.5 381.5  C 134.58 381.5  131.5 378.42  131.5 374.5  C 131.5 370.58  134.58 367.5  138.5 367.5  Z " stroke-width="1" stroke="#797979" fill="none" />
  <path d="M 138.5 378.25  C 136.4 378.25  134.75 376.6  134.75 374.5  C 134.75 372.4  136.4 370.75  138.5 370.75  C 140.6 370.75  142.25 372.4  142.25 374.5  C 142.25 376.6  140.6 378.25  138.5 378.25  " fill-rule="nonzero" fill="#797979" stroke="none" />
</svg>