<?xml version="1.0" encoding="utf-8"?>
<svg version="1.1" xmlns:xlink="http://www.w3.org/1999/xlink" width="15px" height="15px" viewBox="30 367  15 15" xmlns="http://www.w3.org/2000/svg">
  <path d="M 37.5 367  C 41.7 367  45 370.3  45 374.5  C 45 378.7  41.7 382  37.5 382  C 33.3 382  30 378.7  30 374.5  C 30 370.3  33.3 367  37.5 367  Z " fill-rule="nonzero" fill="#ffffff" stroke="none" />
  <path d="M 37.5 367.5  C 41.42 367.5  44.5 370.58  44.5 374.5  C 44.5 378.42  41.42 381.5  37.5 381.5  C 33.58 381.5  30.5 378.42  30.5 374.5  C 30.5 370.58  33.58 367.5  37.5 367.5  Z " stroke-width="1" stroke="#797979" fill="none" />
  <path d="M 37.5 378.25  C 35.4 378.25  33.75 376.6  33.75 374.5  C 33.75 372.4  35.4 370.75  37.5 370.75  C 39.6 370.75  41.25 372.4  41.25 374.5  C 41.25 376.6  39.6 378.25  37.5 378.25  " fill-rule="nonzero" fill="#797979" stroke="none" />
</svg>