<?xml version="1.0" encoding="utf-8"?>
<svg version="1.1" xmlns:xlink="http://www.w3.org/1999/xlink" width="15px" height="15px" xmlns="http://www.w3.org/2000/svg">
  <g transform="matrix(1 0 0 1 -123 -417 )">
    <path d="M 15 7.5  C 15 3.35825892857143  11.6417410714286 0  7.5 0  C 3.35825892857143 0  0 3.35825892857143  0 7.5  C 0 11.6417410714286  3.35825892857143 15  7.5 15  C 11.6417410714286 15  15 11.6417410714286  15 7.5  Z M 6.96428571428571 8.4375  L 6.96428571428571 3.88392857142857  C 6.96428571428571 3.81026785714286  7.02455357142857 3.75  7.09821428571429 3.75  L 7.90178571428571 3.75  C 7.97544642857143 3.75  8.03571428571428 3.81026785714286  8.03571428571428 3.88392857142857  L 8.03571428571428 8.4375  C 8.03571428571428 8.51116071428571  7.97544642857143 8.57142857142857  7.90178571428571 8.57142857142857  L 7.09821428571429 8.57142857142857  C 7.02455357142857 8.57142857142857  6.96428571428571 8.51116071428571  6.96428571428571 8.4375  Z M 8.28733515189475 10.4464285714286  C 8.28733515189475 10.8839282487635  7.93740855055361 11.2410709703328  7.5 11.25  C 7.06259144944639 11.2410709703328  6.71266484810525 10.8839282487635  6.71266484810525 10.4464285714286  C 6.71266484810525 10.0089288940936  7.06259144944639 9.65178617252433  7.5 9.64285714285714  C 7.93740855055361 9.65178617252433  8.28733515189475 10.0089288940936  8.28733515189475 10.4464285714286  Z " fill-rule="nonzero" fill="#026d93" stroke="none" transform="matrix(1 0 0 1 123 417 )" />
  </g>
</svg>