<?xml version="1.0" encoding="utf-8"?>
<svg version="1.1" xmlns:xlink="http://www.w3.org/1999/xlink" width="15px" height="15px" viewBox="506 327  15 15" xmlns="http://www.w3.org/2000/svg">
  <path d="M 513.5 327  C 517.7 327  521 330.3  521 334.5  C 521 338.7  517.7 342  513.5 342  C 509.3 342  506 338.7  506 334.5  C 506 330.3  509.3 327  513.5 327  Z " fill-rule="nonzero" fill="#f0f0f0" stroke="none" />
  <path d="M 513.5 327.5  C 517.42 327.5  520.5 330.58  520.5 334.5  C 520.5 338.42  517.42 341.5  513.5 341.5  C 509.58 341.5  506.5 338.42  506.5 334.5  C 506.5 330.58  509.58 327.5  513.5 327.5  Z " stroke-width="1" stroke="#797979" fill="none" />
  <path d="M 513.5 338.25  C 511.4 338.25  509.75 336.6  509.75 334.5  C 509.75 332.4  511.4 330.75  513.5 330.75  C 515.6 330.75  517.25 332.4  517.25 334.5  C 517.25 336.6  515.6 338.25  513.5 338.25  " fill-rule="nonzero" fill="#797979" stroke="none" />
</svg>