<?xml version="1.0" encoding="utf-8"?>
<svg version="1.1" xmlns:xlink="http://www.w3.org/1999/xlink" width="12px" height="12px" viewBox="74 735  12 12" xmlns="http://www.w3.org/2000/svg">
  <path d="M 74.5 737  A 1.5 1.5 0 0 1 76 735.5 L 84 735.5  A 1.5 1.5 0 0 1 85.5 737 L 85.5 745  A 1.5 1.5 0 0 1 84 746.5 L 76 746.5  A 1.5 1.5 0 0 1 74.5 745 L 74.5 737  Z " fill-rule="nonzero" fill="#ffffff" stroke="none" />
  <path d="M 74.5 737  A 1.5 1.5 0 0 1 76 735.5 L 84 735.5  A 1.5 1.5 0 0 1 85.5 737 L 85.5 745  A 1.5 1.5 0 0 1 84 746.5 L 76 746.5  A 1.5 1.5 0 0 1 74.5 745 L 74.5 737  Z " stroke-width="1" stroke="#797979" fill="none" />
</svg>