<?xml version="1.0" encoding="utf-8"?>
<svg version="1.1" xmlns:xlink="http://www.w3.org/1999/xlink" width="15px" height="15px" viewBox="1081 -808  15 15" xmlns="http://www.w3.org/2000/svg">
  <path d="M 1081.5 -806  A 1.5 1.5 0 0 1 1083 -807.5 L 1094 -807.5  A 1.5 1.5 0 0 1 1095.5 -806 L 1095.5 -795  A 1.5 1.5 0 0 1 1094 -793.5 L 1083 -793.5  A 1.5 1.5 0 0 1 1081.5 -795 L 1081.5 -806  Z " fill-rule="nonzero" fill="#ffffff" stroke="none" />
  <path d="M 1081.5 -806  A 1.5 1.5 0 0 1 1083 -807.5 L 1094 -807.5  A 1.5 1.5 0 0 1 1095.5 -806 L 1095.5 -795  A 1.5 1.5 0 0 1 1094 -793.5 L 1083 -793.5  A 1.5 1.5 0 0 1 1081.5 -795 L 1081.5 -806  Z " stroke-width="1" stroke="#aaaaaa" fill="none" />
  <path d="M 1084.21428571429 -800.5  L 1087.42857142857 -797.285714285714  " stroke-width="3.21428571428571" stroke="#aaaaaa" fill="none" />
  <path d="M 1087.42857142857 -797.285714285714  L 1092.78571428571 -804.785714285714  " stroke-width="3.21428571428571" stroke="#aaaaaa" fill="none" />
</svg>