<?xml version="1.0" encoding="utf-8"?>
<svg version="1.1" xmlns:xlink="http://www.w3.org/1999/xlink" width="15px" height="15px" viewBox="1081 -688  15 15" xmlns="http://www.w3.org/2000/svg">
  <path d="M 1081.5 -686  A 1.5 1.5 0 0 1 1083 -687.5 L 1094 -687.5  A 1.5 1.5 0 0 1 1095.5 -686 L 1095.5 -675  A 1.5 1.5 0 0 1 1094 -673.5 L 1083 -673.5  A 1.5 1.5 0 0 1 1081.5 -675 L 1081.5 -686  Z " fill-rule="nonzero" fill="#ffffff" stroke="none" />
  <path d="M 1081.5 -686  A 1.5 1.5 0 0 1 1083 -687.5 L 1094 -687.5  A 1.5 1.5 0 0 1 1095.5 -686 L 1095.5 -675  A 1.5 1.5 0 0 1 1094 -673.5 L 1083 -673.5  A 1.5 1.5 0 0 1 1081.5 -675 L 1081.5 -686  Z " stroke-width="1" stroke="#aaaaaa" fill="none" />
  <path d="M 1084.21428571429 -680.5  L 1087.42857142857 -677.285714285714  " stroke-width="3.21428571428571" stroke="#aaaaaa" fill="none" />
  <path d="M 1087.42857142857 -677.285714285714  L 1092.78571428571 -684.785714285714  " stroke-width="3.21428571428571" stroke="#aaaaaa" fill="none" />
</svg>