<?xml version="1.0" encoding="utf-8"?>
<svg version="1.1" xmlns:xlink="http://www.w3.org/1999/xlink" width="17px" height="17px" xmlns="http://www.w3.org/2000/svg">
  <g transform="matrix(1 0 0 1 -257 604 )">
    <path d="M 11.7428385416667 7.92447916666667  C 11.9420572916667 8.06467013888889  12.0416666666667 8.25651041666667  12.0416666666667 8.5  C 12.0416666666667 8.74348958333333  11.9420572916667 8.93532986111111  11.7428385416667 9.07552083333333  L 6.78450520833333 12.6171875  C 6.55577256944444 12.7868923611111  6.31228298611111 12.8053385416667  6.05403645833333 12.6725260416667  C 5.79578993055556 12.5470920138889  5.66666666666667 12.3368055555556  5.66666666666667 12.0416666666667  L 5.66666666666667 4.95833333333333  C 5.66666666666667 4.66319444444444  5.79578993055556 4.45290798611111  6.05403645833333 4.32747395833333  C 6.31228298611111 4.19466145833333  6.55577256944444 4.21310763888889  6.78450520833333 4.3828125  L 11.7428385416667 7.92447916666667  Z M 14.0670572916667 14.0670572916667  C 14.1334635416667 14.0006510416667  14.1666666666667 13.9157986111111  14 13.8125  L 14 3.1875  C 14.1666666666667 3.08420138888889  14.1334635416667 2.99934895833333  14.0670572916667 2.93294270833333  C 14.0006510416667 2.86653645833333  13.9157986111111 2.83333333333333  13.8125 3  L 3.1875 3  C 3.08420138888889 2.83333333333333  2.99934895833333 2.86653645833333  2.93294270833333 2.93294270833333  C 2.86653645833333 2.99934895833333  2.83333333333333 3.08420138888889  3 3.1875  L 3 13.8125  C 2.83333333333333 13.9157986111111  2.86653645833333 14.0006510416667  2.93294270833333 14.0670572916667  C 2.99934895833333 14.1334635416667  3.08420138888889 14.1666666666667  3.1875 14  L 13.8125 14  C 13.9157986111111 14.1666666666667  14.0006510416667 14.1334635416667  14.0670572916667 14.0670572916667  Z M 16.0647786458333 0.935221354166667  C 16.6882595486111 1.55870225694444  17 2.30946180555555  17 3.1875  L 17 13.8125  C 17 14.6905381944444  16.6882595486111 15.4412977430556  16.0647786458333 16.0647786458333  C 15.4412977430556 16.6882595486111  14.6905381944444 17  13.8125 17  L 3.1875 17  C 2.30946180555556 17  1.55870225694444 16.6882595486111  0.935221354166667 16.0647786458333  C 0.311740451388889 15.4412977430556  0 14.6905381944444  0 13.8125  L 0 3.1875  C 0 2.30946180555555  0.311740451388889 1.55870225694444  0.935221354166667 0.935221354166667  C 1.55870225694444 0.311740451388888  2.30946180555556 0  3.1875 0  L 13.8125 0  C 14.6905381944444 0  15.4412977430556 0.311740451388888  16.0647786458333 0.935221354166667  Z " fill-rule="nonzero" fill="#00a199" stroke="none" transform="matrix(1 0 0 1 257 -604 )" />
  </g>
</svg>