<?xml version="1.0" encoding="utf-8"?>
<svg version="1.1" xmlns:xlink="http://www.w3.org/1999/xlink" width="12px" height="12px" viewBox="1078 -367  12 12" xmlns="http://www.w3.org/2000/svg">
  <path d="M 1078.5 -365  A 1.5 1.5 0 0 1 1080 -366.5 L 1088 -366.5  A 1.5 1.5 0 0 1 1089.5 -365 L 1089.5 -357  A 1.5 1.5 0 0 1 1088 -355.5 L 1080 -355.5  A 1.5 1.5 0 0 1 1078.5 -357 L 1078.5 -365  Z " fill-rule="nonzero" fill="#ffffff" stroke="none" />
  <path d="M 1078.5 -365  A 1.5 1.5 0 0 1 1080 -366.5 L 1088 -366.5  A 1.5 1.5 0 0 1 1089.5 -365 L 1089.5 -357  A 1.5 1.5 0 0 1 1088 -355.5 L 1080 -355.5  A 1.5 1.5 0 0 1 1078.5 -357 L 1078.5 -365  Z " stroke-width="1" stroke="#aaaaaa" fill="none" />
</svg>