<?xml version="1.0" encoding="utf-8"?>
<svg version="1.1" xmlns:xlink="http://www.w3.org/1999/xlink" width="12px" height="12px" viewBox="73 683  12 12" xmlns="http://www.w3.org/2000/svg">
  <path d="M 73.5 685  A 1.5 1.5 0 0 1 75 683.5 L 83 683.5  A 1.5 1.5 0 0 1 84.5 685 L 84.5 693  A 1.5 1.5 0 0 1 83 694.5 L 75 694.5  A 1.5 1.5 0 0 1 73.5 693 L 73.5 685  Z " fill-rule="nonzero" fill="#f0f0f0" stroke="none" />
  <path d="M 73.5 685  A 1.5 1.5 0 0 1 75 683.5 L 83 683.5  A 1.5 1.5 0 0 1 84.5 685 L 84.5 693  A 1.5 1.5 0 0 1 83 694.5 L 75 694.5  A 1.5 1.5 0 0 1 73.5 693 L 73.5 685  Z " stroke-width="1" stroke="#797979" fill="none" />
</svg>