<?xml version="1.0" encoding="utf-8"?>
<svg version="1.1" xmlns:xlink="http://www.w3.org/1999/xlink" width="16px" height="16px" xmlns="http://www.w3.org/2000/svg">
  <g transform="matrix(1 0 0 1 -77 -274 )">
    <path d="M 16 8  C 16 12.48  12.48 16  8 16  C 3.52000000000001 16  0 12.48  0 8  C 0 3.51999999999998  3.52000000000001 0  8 0  C 12.48 0  16 3.51999999999998  16 8  Z M 12 6.96000000000004  L 9.03999999999999 6.96000000000004  L 9.03999999999999 4  L 6.96000000000001 4  L 6.96000000000001 6.96000000000004  L 4 6.96000000000004  L 4 9.03999999999996  L 6.96000000000001 9.03999999999996  L 6.96000000000001 12  L 9.03999999999999 12  L 9.03999999999999 9.03999999999996  L 12 9.03999999999996  L 12 6.96000000000004  Z " fill-rule="nonzero" fill="#327ec7" stroke="none" transform="matrix(1 0 0 1 77 274 )" />
  </g>
</svg>