<?xml version="1.0" encoding="utf-8"?>
<svg version="1.1" xmlns:xlink="http://www.w3.org/1999/xlink" width="15px" height="15px" viewBox="1081 -888  15 15" xmlns="http://www.w3.org/2000/svg">
  <path d="M 1081.5 -886  A 1.5 1.5 0 0 1 1083 -887.5 L 1094 -887.5  A 1.5 1.5 0 0 1 1095.5 -886 L 1095.5 -875  A 1.5 1.5 0 0 1 1094 -873.5 L 1083 -873.5  A 1.5 1.5 0 0 1 1081.5 -875 L 1081.5 -886  Z " fill-rule="nonzero" fill="#f0f0f0" stroke="none" />
  <path d="M 1081.5 -886  A 1.5 1.5 0 0 1 1083 -887.5 L 1094 -887.5  A 1.5 1.5 0 0 1 1095.5 -886 L 1095.5 -875  A 1.5 1.5 0 0 1 1094 -873.5 L 1083 -873.5  A 1.5 1.5 0 0 1 1081.5 -875 L 1081.5 -886  Z " stroke-width="1" stroke="#aaaaaa" fill="none" />
  <path d="M 1084.21428571429 -880.5  L 1087.42857142857 -877.285714285714  " stroke-width="3.21428571428571" stroke="#aaaaaa" fill="none" />
  <path d="M 1087.42857142857 -877.285714285714  L 1092.78571428571 -884.785714285714  " stroke-width="3.21428571428571" stroke="#aaaaaa" fill="none" />
</svg>