<?xml version="1.0" encoding="utf-8"?>
<svg version="1.1" xmlns:xlink="http://www.w3.org/1999/xlink" width="14px" height="14px" xmlns="http://www.w3.org/2000/svg">
  <g transform="matrix(1 0 0 1 -78 -501 )">
    <path d="M 13.6033333333333 12.4444444444444  L 9.72222222222222 8.55555555555556  L 9.10777777777778 8.55555555555556  L 8.89 8.34555555555556  C 9.65222222222222 7.45888888888889  10.1111111111111 6.30777777777778  10.1111111111111 5.05555555555556  C 10.1111111111111 2.26333333333333  7.84777777777778 0  5.05555555555556 0  C 2.26333333333333 0  0 2.26333333333333  0 5.05555555555556  C 0 7.84777777777778  2.26333333333333 10.1111111111111  5.05555555555556 10.1111111111111  C 6.30777777777778 10.1111111111111  7.45888888888889 9.65222222222222  8.34555555555556 8.89  L 8.55555555555556 9.10777777777778  L 8.55555555555556 9.72222222222222  L 12.4444444444444 13.6033333333333  L 13.6033333333333 12.4444444444444  Z M 8.55555555555556 5.05555555555556  C 8.55555555555556 6.99222222222222  6.99222222222222 8.55555555555556  5.05555555555556 8.55555555555556  C 3.11888888888889 8.55555555555556  1.55555555555556 6.99222222222222  1.55555555555556 5.05555555555556  C 1.55555555555556 3.11888888888889  3.11888888888889 1.55555555555556  5.05555555555556 1.55555555555556  C 6.99222222222222 1.55555555555556  8.55555555555556 3.11888888888889  8.55555555555556 5.05555555555556  Z " fill-rule="nonzero" fill="#555555" stroke="none" transform="matrix(1 0 0 1 78 501 )" />
  </g>
</svg>